<?xml version="1.0" encoding="UTF-8"?>
<svg xmlns="http://www.w3.org/2000/svg" xmlns:xlink="http://www.w3.org/1999/xlink" width="4714" height="3361" viewBox="0 0 4714 3361">

<path fill-rule="evenodd" fill="rgb(97.65625%, 70.896912%, 10.984802%)" fill-opacity="1" d="M 2357.121094 233.890625 C 3156.261719 233.890625 3804.089844 881.71875 3804.089844 1680.859375 C 3804.089844 2480 3156.261719 3127.828125 2357.121094 3127.828125 C 1557.980469 3127.828125 910.152344 2480 910.152344 1680.859375 C 910.152344 881.71875 1557.980469 233.890625 2357.121094 233.890625 "/>
<path fill-rule="evenodd" fill="rgb(90.625%, 71.679688%, 65.429688%)" fill-opacity="1" d="M 3411.949219 2671.214844 C 3148 2952.242188 2773.089844 3127.828125 2357.121094 3127.828125 C 2045.78125 3127.828125 1757.421875 3029.476562 1521.371094 2862.171875 C 1560.558594 2830.007812 1612.679688 2801.003906 1681.671875 2784.101562 C 1908.320312 2728.5625 2004.378906 2722.558594 2004.378906 2722.558594 C 2004.378906 2722.558594 2073.429688 2602.476562 2119.960938 2560.449219 C 2166.488281 2518.421875 2171 2518.421875 2171 2518.421875 L 2171 2326.300781 C 2171 2326.300781 2059.921875 2239.238281 2004.378906 2159.679688 C 1948.851562 2080.128906 1927.828125 2035.101562 1927.828125 2035.101562 C 1927.828125 2035.101562 1780.730469 2008.078125 1737.199219 1891.011719 C 1693.679688 1773.929688 1683.171875 1623.828125 1705.679688 1593.808594 C 1728.199219 1563.78125 1747.710938 1565.289062 1747.710938 1565.289062 L 1707.179688 1048.941406 C 1707.179688 1048.941406 1627.628906 964.890625 1614.121094 826.800781 C 1600.609375 688.699219 1627.628906 583.628906 1627.628906 583.628906 C 1627.628906 583.628906 1671.160156 664.691406 1719.191406 709.71875 C 1767.21875 754.75 1779.230469 759.25 1779.230469 759.25 C 1779.230469 759.25 1785.988281 625.660156 1823.511719 546.859375 C 1861.03125 468.050781 1993.128906 417.769531 1993.128906 417.769531 C 1993.128906 417.769531 1996.871094 673.691406 2189 616.648438 C 2381.128906 559.621094 2651.308594 549.109375 2808.921875 697.710938 C 2966.53125 846.308594 2993.539062 900.339844 2999.539062 1120.988281 C 3005.550781 1341.640625 3001.039062 1443.710938 2998.039062 1458.71875 C 2995.039062 1473.730469 2986.03125 1485.738281 2986.03125 1485.738281 C 2986.03125 1485.738281 3005.550781 1479.730469 3016.058594 1521.761719 C 3026.558594 1563.789062 3047.578125 1769.421875 2998.039062 1844.46875 C 2948.511719 1919.53125 2855.441406 1949.550781 2855.441406 1949.550781 C 2855.441406 1949.550781 2832.929688 2081.628906 2789.398438 2152.179688 C 2745.871094 2222.730469 2693.339844 2264.761719 2693.339844 2264.761719 L 2711.351562 2441.875 C 2711.351562 2441.875 2786.398438 2465.890625 2834.429688 2500.414062 C 2882.46875 2534.9375 2944.011719 2612.988281 2944.011719 2612.988281 C 2944.011719 2612.988281 3183.871094 2616.53125 3411.949219 2671.214844 "/>
<path fill-rule="evenodd" fill="rgb(72.459412%, 42.358398%, 51.756287%)" fill-opacity="1" d="M 2119.691406 2560.703125 L 2119.960938 2560.449219 C 2166.488281 2518.421875 2171 2518.421875 2171 2518.421875 L 2171 2326.300781 C 2171 2326.300781 2357.101562 2393.105469 2505.691406 2345.070312 C 2654.300781 2297.039062 2693.339844 2264.761719 2693.339844 2264.761719 L 2711.351562 2441.875 C 2711.351562 2441.875 2786.398438 2465.890625 2834.429688 2500.414062 C 2882.46875 2534.9375 2944.011719 2612.988281 2944.011719 2612.988281 C 2944.011719 2612.988281 2951.480469 2613.101562 2964.988281 2613.582031 C 2960.03125 2652.644531 2933.328125 2687.84375 2873.441406 2714.320312 C 2588.25 2840.40625 2417.140625 2933.46875 2279.050781 2795.375 C 2209.839844 2726.167969 2156.089844 2634.71875 2119.691406 2560.703125 "/>
<path fill-rule="evenodd" fill="rgb(73.242188%, 24.31488%, 39.988708%)" fill-opacity="1" d="M 3411.949219 2671.214844 C 3148 2952.242188 2773.089844 3127.828125 2357.121094 3127.828125 C 2045.78125 3127.828125 1757.421875 3029.476562 1521.371094 2862.171875 C 1560.558594 2830.007812 1612.679688 2801.003906 1681.671875 2784.101562 C 1908.320312 2728.5625 2004.378906 2722.558594 2004.378906 2722.558594 C 2004.378906 2722.558594 2024.679688 2687.257812 2050.679688 2648.234375 C 2256.480469 2714.757812 2508.371094 2771.371094 2627.28125 2699.304688 C 2720.308594 2642.925781 2797.441406 2573.3125 2853.121094 2515.320312 C 2897.019531 2553.398438 2944.011719 2612.988281 2944.011719 2612.988281 C 2944.011719 2612.988281 3183.871094 2616.53125 3411.949219 2671.214844 "/>
<path fill-rule="evenodd" fill="rgb(80.859375%, 39.208984%, 43.920898%)" fill-opacity="1" d="M 2012.109375 2709.4375 C 2031.421875 2677.136719 2082.851562 2593.96875 2119.960938 2560.449219 C 2166.488281 2518.421875 2171 2518.421875 2171 2518.421875 L 2171 2510.179688 C 2171 2510.179688 2423.140625 2598.734375 2436.648438 2619.753906 C 2450.160156 2640.765625 2480.179688 2711.3125 2480.179688 2711.3125 C 2480.179688 2711.3125 2483.179688 2621.253906 2489.191406 2609.242188 C 2493.488281 2600.640625 2645.660156 2503.46875 2731.660156 2449.03125 C 2757.308594 2458.609375 2802.03125 2477.117188 2834.429688 2500.414062 C 2882.46875 2534.9375 2944.011719 2612.988281 2944.011719 2612.988281 C 2944.011719 2612.988281 2663.308594 2987.496094 2372.109375 2903.441406 C 2181.121094 2848.308594 2067.609375 2762.183594 2012.109375 2709.4375 "/>
<path fill-rule="evenodd" fill="rgb(8.250427%, 10.205078%, 10.594177%)" fill-opacity="1" d="M 1747.710938 1565.289062 L 1707.179688 1048.941406 C 1707.179688 1048.941406 1627.628906 964.890625 1614.121094 826.800781 C 1600.609375 688.699219 1627.628906 583.628906 1627.628906 583.628906 C 1627.628906 583.628906 1671.160156 664.691406 1719.191406 709.71875 C 1767.21875 754.75 1779.230469 759.25 1779.230469 759.25 C 1779.230469 759.25 1785.988281 625.660156 1823.511719 546.859375 C 1861.03125 468.050781 1993.128906 417.769531 1993.128906 417.769531 C 1993.128906 417.769531 1996.871094 673.691406 2189 616.648438 C 2381.128906 559.621094 2651.308594 549.109375 2808.921875 697.710938 C 2966.53125 846.308594 2993.539062 900.339844 2999.539062 1120.988281 C 3005.550781 1341.640625 3001.039062 1443.710938 2998.039062 1458.71875 C 2995.039062 1473.730469 2986.03125 1485.738281 2986.03125 1485.738281 C 2986.628906 1485.691406 2987.289062 1485.558594 2987.929688 1485.460938 C 2986.730469 1485.519531 2986.03125 1485.738281 2986.03125 1485.738281 C 2918.5 1490.988281 2868.949219 1563.039062 2868.949219 1563.039062 C 2868.949219 1563.039062 2865.941406 1519.511719 2846.429688 1429.449219 C 2826.921875 1339.390625 2723.351562 986.648438 2723.351562 986.648438 C 2723.351562 986.648438 2585.261719 1064.710938 2327.089844 1114.238281 C 2068.910156 1163.769531 1848.269531 1176.53125 1848.269531 1176.53125 L 1868.53125 1682.371094 C 1868.53125 1682.371094 1867.03125 1680.871094 1828 1641.839844 C 1788.980469 1602.808594 1747.710938 1565.289062 1747.710938 1565.289062 "/>
<path fill-rule="evenodd" fill="rgb(26.660156%, 26.660156%, 26.660156%)" fill-opacity="1" d="M 1619.210938 862.410156 C 1617.058594 850.96875 1615.328125 839.101562 1614.121094 826.800781 C 1600.609375 688.699219 1627.628906 583.628906 1627.628906 583.628906 C 1627.628906 583.628906 1671.160156 664.691406 1719.191406 709.71875 C 1767.21875 754.75 1779.230469 759.25 1779.230469 759.25 C 1779.230469 759.25 1785.988281 625.660156 1823.511719 546.859375 C 1861.03125 468.050781 1993.128906 417.769531 1993.128906 417.769531 C 1993.128906 417.769531 1996.871094 673.691406 2189 616.648438 C 2381.128906 559.621094 2651.308594 549.109375 2808.921875 697.710938 C 2942.03125 823.210938 2981.980469 881.261719 2994.808594 1029.199219 C 2960.191406 1005.261719 2915.25 978.28125 2856.941406 949.128906 C 2634.789062 838.058594 2319.578125 1027.179688 1978.851562 1057.199219 C 1798.71875 1073.070312 1685.730469 966.449219 1619.210938 862.410156 "/>
</svg>
